<svg width="1200" height="360" viewBox="0 0 1200 360" xmlns="http://www.w3.org/2000/svg">
  <defs>
    <linearGradient id="g1" x1="0" y1="0" x2="1" y2="1">
      <stop offset="0%" stop-color="#0ea5e9"/>
      <stop offset="50%" stop-color="#6366f1"/>
      <stop offset="100%" stop-color="#a855f7"/>
    </linearGradient>
    <linearGradient id="g2" x1="0" y1="1" x2="1" y2="0">
      <stop offset="0%" stop-color="#111827"/>
      <stop offset="100%" stop-color="#1f2937"/>
    </linearGradient>
    <filter id="softGlow" x="-50%" y="-50%" width="200%" height="200%">
      <feGaussianBlur stdDeviation="12" result="blur"/>
      <feMerge>
        <feMergeNode in="blur"/>
        <feMergeNode in="SourceGraphic"/>
      </feMerge>
    </filter>
  </defs>
  <rect x="0" y="0" width="1200" height="360" fill="url(#g2)"/>
  <g filter="url(#softGlow)">
    <circle cx="150" cy="280" r="180" fill="url(#g1)" opacity="0.20"/>
    <circle cx="1050" cy="80" r="180" fill="url(#g1)" opacity="0.18"/>
    <circle cx="640" cy="200" r="220" fill="url(#g1)" opacity="0.12"/>
  </g>
  <g>
    <text x="70" y="160" fill="#e5e7eb" font-family="Inter, Segoe UI, Roboto, Helvetica, Arial, sans-serif" font-size="38" font-weight="700">AGEB</text>
    <text x="70" y="210" fill="#a5b4fc" font-family="Inter, Segoe UI, Roboto, Helvetica, Arial, sans-serif" font-size="20" font-weight="500">Architecture Generation & Evaluation Benchmark</text>
    <text x="70" y="250" fill="#93c5fd" font-family="Inter, Segoe UI, Roboto, Helvetica, Arial, sans-serif" font-size="16">Semantic • Functional • Geometric — Toward Architecturally-Informed AI</text>
  </g>
  <g>
    <path d="M340 265 L1140 265" stroke="#334155" stroke-width="1.5" stroke-linecap="round"/>
    <rect x="360" y="230" width="110" height="70" rx="10" fill="#0ea5e9" opacity="0.25" stroke="#38bdf8"/>
    <text x="415" y="273" fill="#e5e7eb" font-size="14" text-anchor="middle">Semantic</text>
    <rect x="520" y="230" width="110" height="70" rx="10" fill="#6366f1" opacity="0.25" stroke="#818cf8"/>
    <text x="575" y="273" fill="#e5e7eb" font-size="14" text-anchor="middle">Functional</text>
    <rect x="680" y="230" width="110" height="70" rx="10" fill="#a855f7" opacity="0.25" stroke="#c084fc"/>
    <text x="735" y="273" fill="#e5e7eb" font-size="14" text-anchor="middle">Geometric</text>
    <rect x="840" y="230" width="240" height="70" rx="10" fill="#10b981" opacity="0.25" stroke="#34d399"/>
    <text x="960" y="273" fill="#e5e7eb" font-size="14" text-anchor="middle">Reliability: Not Yet Achieved</text>
  </g>
</svg>
